<?xml version="1.0" encoding="UTF-8" standalone="no"?>
<svg xmlns:dc="http://purl.org/dc/elements/1.1/"
  xmlns:cc="http://creativecommons.org/ns#"
  xmlns:rdf="http://www.w3.org/1999/02/22-rdf-syntax-ns#"
  xmlns:svg="http://www.w3.org/2000/svg"
  xmlns="http://www.w3.org/2000/svg" viewBox="0 0 1866.6667 1866.6667" height="1866.6667" width="1866.6667" xml:space="preserve" id="svg2" version="1.1">
  <metadata id="metadata8">
    <rdf:RDF>
      <cc:Work rdf:about="">
        <dc:format>image/svg+xml</dc:format>
        <dc:type rdf:resource="http://purl.org/dc/dcmitype/StillImage" />
      </cc:Work>
    </rdf:RDF>
  </metadata>
  <defs id="defs6">
    <clipPath id="clipPath20" clipPathUnits="userSpaceOnUse">
      <path id="path18" d="M 0,1400 H 1400 V 0 H 0 Z" />
    </clipPath>
  </defs>
  <g transform="matrix(1.3333333,0,0,-1.3333333,0,1866.6667)" id="g10">
    <path id="path12" style="fill:#000000;fill-opacity:1;fill-rule:nonzero;stroke:none" d="m 464.206,251.535 h 471.588 v 64.653 H 464.206 Z" />
    <g id="g14">
      <g clip-path="url(#clipPath20)" id="g16">
        <g transform="translate(915.5918,1083.6235)" id="g22">
          <path id="path24" style="fill:#000000;fill-opacity:1;fill-rule:nonzero;stroke:none" d="m 0,0 c -12.776,13.461 -31.856,21.201 -56.739,23.003 l -88.991,5.311 c -14.869,0.858 -24.984,3.559 -30.066,8.029 -4.957,4.363 -7.47,13.129 -7.47,26.053 v 2.445 h -64.657 v -2.445 c 0,-12.917 -2.512,-21.683 -7.465,-26.051 -5.091,-4.472 -15.212,-7.173 -30.079,-8.031 l -89.011,-5.313 c -24.863,-1.8 -43.944,-9.54 -56.71,-23.001 -12.785,-13.459 -19.267,-31.34 -19.267,-53.147 v -39.632 h 64.658 v 13.07 c 0,11.266 3.057,19.104 9.347,23.963 6.424,4.981 18.359,7.938 35.476,8.788 l 66.43,3.324 c 14.934,0.91 27.925,4.599 38.618,10.964 v 0.002 c 9.103,5.43 15.919,14.275 20.332,26.349 4.412,-12.081 11.228,-20.924 20.331,-26.351 10.684,-6.365 23.675,-10.052 38.643,-10.966 l 66.41,-3.322 c 17.099,-0.85 29.038,-3.809 35.481,-8.788 6.2,-4.8 9.342,-12.864 9.342,-23.963 v -13.07 h 64.653 v 39.632 C 19.266,-31.35 12.785,-13.469 0,0" />
        </g>
        <g transform="translate(835.3398,744.9272)" id="g26">
          <path id="path28" style="fill:#000000;fill-opacity:1;fill-rule:nonzero;stroke:none" d="m 0,0 v 61.023 c 0,45.687 -10.958,83.232 -32.572,111.582 l -0.005,0.01 c -22.55,29.544 -57.123,44.526 -102.763,44.526 -45.654,0 -80.23,-14.982 -102.765,-44.531 -21.614,-28.336 -32.575,-65.876 -32.575,-111.587 v -286.088 c 0,-45.725 10.961,-83.269 32.573,-111.581 22.525,-29.555 57.101,-44.537 102.767,-44.537 45.652,0 80.228,14.982 102.766,44.532 C -10.958,-308.31 0,-270.771 0,-225.065 v 78.604 h -64.505 v -81.001 c 0,-28.69 -5.929,-51.486 -17.623,-67.757 -10.756,-14.978 -27.899,-22.256 -52.412,-22.256 -24.515,0 -41.659,7.278 -52.417,22.261 -11.691,16.266 -17.621,39.062 -17.621,67.752 V 63.421 c 0,28.713 5.949,51.671 17.681,68.235 10.758,15.192 27.885,22.576 52.357,22.576 24.47,0 41.597,-7.384 52.354,-22.576 11.733,-16.564 17.681,-39.522 17.681,-68.235 V 0 Z" />
        </g>
      </g>
    </g>
  </g>
</svg>